<?xml version="1.0" encoding="UTF-8"?>
<svg id="Layer_2" data-name="Layer 2" xmlns="http://www.w3.org/2000/svg" viewBox="0 0 10287.51 818.91">
  <defs>
    <style>
      .cls-1 {
        fill: #fff;
      }
    </style>
  </defs>
  <g id="Layer_2-2" data-name="Layer 2">
    <g id="Layer_1-2" data-name="Layer 1-2">
      <path class="cls-1" d="M519.34,785.91c-6.59,0-13.13,1.66-18.89,4.83-11.23-35.89-49.46-55.89-85.36-44.66-1.76.57-3.45,1.19-5.2,1.87-21.01-37.15-68.19-50.26-105.34-29.19-16.93,9.57-29.57,25.18-35.5,43.67-26.88-9.94-56.79,3.82-66.73,30.71-2.14,5.79-3.27,11.98-3.24,18.16.04,2.54.25,5.07.63,7.59l358.57-.15c-3.27-18.98-19.71-32.78-38.94-32.84h0Z"/>
      <path class="cls-1" d="M632.84,614.54c-3.49,0-6.96.88-10.01,2.56-5.95-19.02-26.22-29.62-45.24-23.67-.93.3-1.83.63-2.76.99-11.14-19.69-36.14-26.64-55.83-15.47-8.97,5.07-15.67,13.34-18.82,23.15-14.25-5.27-30.1,2.03-35.37,16.28-1.13,3.07-1.73,6.35-1.72,9.63.02,1.35.13,2.69.33,4.02l190.06-.08c-1.74-10.06-10.45-17.38-20.64-17.41h0Z"/>
      <path class="cls-1" d="M320.26,339.7c-6.59,0-13.13,1.66-18.89,4.83-11.23-35.89-49.46-55.89-85.36-44.66-1.76.57-3.45,1.19-5.2,1.87-21.01-37.15-68.19-50.26-105.34-29.19-16.93,9.57-29.57,25.18-35.5,43.67-26.88-9.94-56.79,3.82-66.73,30.71C1.1,352.72-.02,358.91,0,365.09c.04,2.54.25,5.07.63,7.59l358.57-.15c-3.27-18.98-19.71-32.78-38.94-32.84h0Z"/>
      <path class="cls-1" d="M635.49,94.64c-8.08,0-16.09,2.03-23.16,5.92-13.76-43.99-60.63-68.51-104.62-54.74-2.15.7-4.23,1.46-6.38,2.29C475.58,2.58,417.75-13.48,372.22,12.34c-20.75,11.73-36.24,30.86-43.51,53.53-32.95-12.18-69.61,4.69-81.79,37.64-2.62,7.1-4,14.69-3.97,22.26.05,3.11.3,6.21.77,9.3l439.51-.18c-4.01-23.27-24.16-40.18-47.73-40.25h-.01Z"/>
      <path class="cls-1" d="M1428.85,785.91c-6.59,0-13.13,1.66-18.89,4.83-11.23-35.89-49.46-55.89-85.36-44.66-1.76.57-3.45,1.19-5.2,1.87-21.01-37.15-68.19-50.26-105.34-29.19-16.93,9.57-29.57,25.18-35.5,43.67-26.88-9.94-56.79,3.82-66.73,30.71-2.14,5.79-3.27,11.98-3.24,18.16.04,2.54.25,5.07.63,7.59l358.57-.15c-3.27-18.98-19.71-32.78-38.94-32.84h0Z"/>
      <path class="cls-1" d="M1542.35,614.54c-3.49,0-6.96.88-10.01,2.56-5.95-19.02-26.22-29.62-45.24-23.67-.93.3-1.83.63-2.76.99-11.14-19.69-36.14-26.64-55.83-15.47-8.97,5.07-15.67,13.34-18.82,23.15-14.25-5.27-30.1,2.03-35.37,16.28-1.13,3.07-1.73,6.35-1.72,9.63.02,1.35.13,2.69.33,4.02l190.06-.08c-1.74-10.06-10.45-17.38-20.64-17.41h0Z"/>
      <path class="cls-1" d="M1229.77,339.7c-6.59,0-13.13,1.66-18.89,4.83-11.23-35.89-49.46-55.89-85.36-44.66-1.76.57-3.45,1.19-5.2,1.87-21.01-37.15-68.19-50.26-105.34-29.19-16.93,9.57-29.57,25.18-35.5,43.67-26.88-9.94-56.79,3.82-66.73,30.71-2.14,5.79-3.27,11.98-3.24,18.16.04,2.54.25,5.07.63,7.59l358.57-.15c-3.27-18.98-19.71-32.78-38.94-32.84h0Z"/>
      <path class="cls-1" d="M1545.01,94.64c-8.08,0-16.09,2.03-23.16,5.92-13.76-43.99-60.63-68.51-104.62-54.74-2.15.7-4.23,1.46-6.38,2.29-25.75-45.54-83.58-61.6-129.12-35.78-20.75,11.73-36.24,30.86-43.51,53.53-32.95-12.18-69.61,4.69-81.79,37.64-2.62,7.1-4,14.69-3.97,22.26.05,3.11.3,6.21.77,9.3l439.51-.18c-4.01-23.27-24.16-40.18-47.73-40.25h0Z"/>
      <path class="cls-1" d="M2338.36,785.91c-6.59,0-13.13,1.66-18.89,4.83-11.23-35.89-49.46-55.89-85.36-44.66-1.76.57-3.45,1.19-5.2,1.87-21.01-37.15-68.19-50.26-105.34-29.19-16.93,9.57-29.57,25.18-35.5,43.67-26.88-9.94-56.79,3.82-66.73,30.71-2.14,5.79-3.27,11.98-3.24,18.16.04,2.54.25,5.07.63,7.59l358.57-.15c-3.27-18.98-19.71-32.78-38.94-32.84h0Z"/>
      <path class="cls-1" d="M2451.86,614.54c-3.49,0-6.96.88-10.01,2.56-5.95-19.02-26.22-29.62-45.24-23.67-.93.3-1.83.63-2.76.99-11.14-19.69-36.14-26.64-55.83-15.47-8.97,5.07-15.67,13.34-18.82,23.15-14.25-5.27-30.1,2.03-35.37,16.28-1.13,3.07-1.73,6.35-1.72,9.63.02,1.35.13,2.69.33,4.02l190.06-.08c-1.74-10.06-10.45-17.38-20.64-17.41h0Z"/>
      <path class="cls-1" d="M2139.28,339.7c-6.59,0-13.13,1.66-18.89,4.83-11.23-35.89-49.46-55.89-85.36-44.66-1.76.57-3.45,1.19-5.2,1.87-21.01-37.15-68.19-50.26-105.34-29.19-16.93,9.57-29.57,25.18-35.5,43.67-26.88-9.94-56.79,3.82-66.73,30.71-2.14,5.79-3.27,11.98-3.24,18.16.04,2.54.25,5.07.63,7.59l358.57-.15c-3.27-18.98-19.71-32.78-38.94-32.84h0Z"/>
      <path class="cls-1" d="M2454.52,94.64c-8.08,0-16.09,2.03-23.16,5.92-13.76-43.99-60.63-68.51-104.62-54.74-2.15.7-4.23,1.46-6.38,2.29-25.75-45.54-83.58-61.6-129.12-35.78-20.75,11.73-36.24,30.86-43.51,53.53-32.95-12.18-69.61,4.69-81.79,37.64-2.62,7.1-4,14.69-3.97,22.26.05,3.11.3,6.21.77,9.3l439.51-.18c-4.01-23.27-24.16-40.18-47.73-40.25h0Z"/>
      <path class="cls-1" d="M3247.87,785.91c-6.59,0-13.13,1.66-18.89,4.83-11.23-35.89-49.46-55.89-85.36-44.66-1.76.57-3.45,1.19-5.2,1.87-21.01-37.15-68.19-50.26-105.34-29.19-16.93,9.57-29.57,25.18-35.5,43.67-26.88-9.94-56.79,3.82-66.73,30.71-2.14,5.79-3.27,11.98-3.24,18.16.04,2.54.25,5.07.63,7.59l358.57-.15c-3.27-18.98-19.71-32.78-38.94-32.84h0Z"/>
      <path class="cls-1" d="M3048.79,339.7c-6.59,0-13.13,1.66-18.89,4.83-11.23-35.89-49.46-55.89-85.36-44.66-1.76.57-3.45,1.19-5.2,1.87-21.01-37.15-68.19-50.26-105.34-29.19-16.93,9.57-29.57,25.18-35.5,43.67-26.88-9.94-56.79,3.82-66.73,30.71-2.14,5.79-3.27,11.98-3.24,18.16.04,2.54.25,5.07.63,7.59l358.57-.15c-3.27-18.98-19.71-32.78-38.94-32.84h0Z"/>
      <path class="cls-1" d="M3364.03,94.64c-8.08,0-16.09,2.03-23.16,5.92-13.76-43.99-60.63-68.51-104.62-54.74-2.15.7-4.23,1.46-6.38,2.29-25.75-45.54-83.58-61.6-129.12-35.78-20.75,11.73-36.24,30.86-43.51,53.53-32.95-12.18-69.61,4.69-81.79,37.64-2.62,7.1-4,14.69-3.97,22.26.05,3.11.3,6.21.77,9.3l439.51-.18c-4.01-23.27-24.16-40.18-47.73-40.25h0Z"/>
    </g>
    <g id="Layer_1-2-2" data-name="Layer 1-2">
      <path class="cls-1" d="M3921.31,785.92c-6.59,0-13.13,1.66-18.89,4.83-11.23-35.89-49.46-55.89-85.36-44.66-1.76.57-3.45,1.19-5.2,1.87-21.01-37.15-68.19-50.26-105.34-29.19-16.93,9.57-29.57,25.18-35.5,43.67-26.88-9.94-56.79,3.82-66.73,30.71-2.14,5.79-3.27,11.98-3.24,18.16.04,2.54.25,5.07.63,7.59l358.57-.15c-3.27-18.98-19.71-32.78-38.94-32.84h0Z"/>
      <path class="cls-1" d="M4034.81,614.55c-3.49,0-6.96.88-10.01,2.56-5.95-19.02-26.22-29.62-45.24-23.67-.93.3-1.83.63-2.76.99-11.14-19.69-36.14-26.64-55.83-15.47-8.97,5.07-15.67,13.34-18.82,23.15-14.25-5.27-30.1,2.03-35.37,16.28-1.13,3.07-1.73,6.35-1.72,9.63.02,1.35.13,2.69.33,4.02l190.06-.08c-1.74-10.06-10.45-17.38-20.64-17.41h0Z"/>
      <path class="cls-1" d="M3722.23,339.71c-6.59,0-13.13,1.66-18.89,4.83-11.23-35.89-49.46-55.89-85.36-44.66-1.76.57-3.45,1.19-5.2,1.87-21.01-37.15-68.19-50.26-105.34-29.19-16.93,9.57-29.57,25.18-35.5,43.67-26.88-9.94-56.79,3.82-66.73,30.71-2.14,5.79-3.26,11.98-3.24,18.16.04,2.54.25,5.07.63,7.59l358.57-.15c-3.27-18.98-19.71-32.78-38.94-32.84h0Z"/>
      <path class="cls-1" d="M4037.46,94.65c-8.08,0-16.09,2.03-23.16,5.92-13.76-43.99-60.63-68.51-104.62-54.74-2.15.7-4.23,1.46-6.38,2.29-25.75-45.53-83.58-61.59-129.11-35.77-20.75,11.73-36.24,30.86-43.51,53.53-32.95-12.18-69.61,4.69-81.79,37.64-2.62,7.1-4,14.69-3.97,22.26.05,3.11.3,6.21.77,9.3l439.51-.18c-4.01-23.27-24.16-40.18-47.73-40.25h-.01Z"/>
      <path class="cls-1" d="M4830.82,785.92c-6.59,0-13.13,1.66-18.89,4.83-11.23-35.89-49.46-55.89-85.36-44.66-1.76.57-3.45,1.19-5.2,1.87-21.01-37.15-68.19-50.26-105.34-29.19-16.93,9.57-29.57,25.18-35.5,43.67-26.88-9.94-56.79,3.82-66.73,30.71-2.14,5.79-3.27,11.98-3.24,18.16.04,2.54.25,5.07.63,7.59l358.57-.15c-3.27-18.98-19.71-32.78-38.94-32.84h0Z"/>
      <path class="cls-1" d="M4944.32,614.55c-3.49,0-6.96.88-10.01,2.56-5.95-19.02-26.22-29.62-45.24-23.67-.93.3-1.83.63-2.76.99-11.14-19.69-36.14-26.64-55.83-15.47-8.97,5.07-15.67,13.34-18.82,23.15-14.25-5.27-30.1,2.03-35.37,16.28-1.13,3.07-1.73,6.35-1.72,9.63.02,1.35.13,2.69.33,4.02l190.06-.08c-1.74-10.06-10.45-17.38-20.64-17.41h0Z"/>
      <path class="cls-1" d="M4631.74,339.71c-6.59,0-13.13,1.66-18.89,4.83-11.23-35.89-49.46-55.89-85.36-44.66-1.76.57-3.45,1.19-5.2,1.87-21.01-37.15-68.19-50.26-105.34-29.19-16.93,9.57-29.57,25.18-35.5,43.67-26.88-9.94-56.79,3.82-66.73,30.71-2.14,5.79-3.27,11.98-3.24,18.16.04,2.54.25,5.07.63,7.59l358.57-.15c-3.27-18.98-19.71-32.78-38.94-32.84h0Z"/>
      <path class="cls-1" d="M4946.98,94.65c-8.08,0-16.09,2.03-23.16,5.92-13.76-43.99-60.63-68.51-104.62-54.74-2.15.7-4.23,1.46-6.38,2.29-25.75-45.54-83.58-61.6-129.12-35.78-20.75,11.73-36.24,30.86-43.51,53.53-32.95-12.18-69.61,4.69-81.79,37.64-2.62,7.1-4,14.69-3.97,22.26.05,3.11.3,6.21.77,9.3l439.51-.18c-4.01-23.27-24.16-40.18-47.73-40.25h0Z"/>
      <path class="cls-1" d="M5740.33,785.92c-6.59,0-13.13,1.66-18.89,4.83-11.23-35.89-49.46-55.89-85.36-44.66-1.76.57-3.45,1.19-5.2,1.87-21.01-37.15-68.19-50.26-105.34-29.19-16.93,9.57-29.57,25.18-35.5,43.67-26.88-9.94-56.79,3.82-66.73,30.71-2.14,5.79-3.27,11.98-3.24,18.16.04,2.54.25,5.07.63,7.59l358.57-.15c-3.27-18.98-19.71-32.78-38.94-32.84h0Z"/>
      <path class="cls-1" d="M5853.83,614.55c-3.49,0-6.96.88-10.01,2.56-5.95-19.02-26.22-29.62-45.24-23.67-.93.3-1.83.63-2.76.99-11.14-19.69-36.14-26.64-55.83-15.47-8.97,5.07-15.67,13.34-18.82,23.15-14.25-5.27-30.1,2.03-35.37,16.28-1.13,3.07-1.73,6.35-1.72,9.63.02,1.35.13,2.69.33,4.02l190.06-.08c-1.74-10.06-10.45-17.38-20.64-17.41h0Z"/>
      <path class="cls-1" d="M5541.25,339.71c-6.59,0-13.13,1.66-18.89,4.83-11.23-35.89-49.46-55.89-85.36-44.66-1.76.57-3.45,1.19-5.2,1.87-21.01-37.15-68.19-50.26-105.34-29.19-16.93,9.57-29.57,25.18-35.5,43.67-26.88-9.94-56.79,3.82-66.73,30.71-2.14,5.79-3.27,11.98-3.24,18.16.04,2.54.25,5.07.63,7.59l358.57-.15c-3.27-18.98-19.71-32.78-38.94-32.84h0Z"/>
      <path class="cls-1" d="M5856.49,94.65c-8.08,0-16.09,2.03-23.16,5.92-13.76-43.99-60.63-68.51-104.62-54.74-2.15.7-4.23,1.46-6.38,2.29-25.75-45.54-83.58-61.6-129.12-35.78-20.75,11.73-36.24,30.86-43.51,53.53-32.95-12.18-69.61,4.69-81.79,37.64-2.62,7.1-4,14.69-3.97,22.26.05,3.11.3,6.21.77,9.3l439.51-.18c-4.01-23.27-24.16-40.18-47.73-40.25h0Z"/>
      <path class="cls-1" d="M6649.84,785.92c-6.59,0-13.13,1.66-18.89,4.83-11.23-35.89-49.46-55.89-85.36-44.66-1.76.57-3.45,1.19-5.2,1.87-21.01-37.15-68.19-50.26-105.34-29.19-16.93,9.57-29.57,25.18-35.5,43.67-26.88-9.94-56.79,3.82-66.73,30.71-2.14,5.79-3.27,11.98-3.24,18.16.04,2.54.25,5.07.63,7.59l358.57-.15c-3.27-18.98-19.71-32.78-38.94-32.84h0Z"/>
      <path class="cls-1" d="M6450.76,339.71c-6.59,0-13.13,1.66-18.89,4.83-11.23-35.89-49.46-55.89-85.36-44.66-1.76.57-3.45,1.19-5.2,1.87-21.01-37.15-68.19-50.26-105.34-29.19-16.93,9.57-29.57,25.18-35.5,43.67-26.88-9.94-56.79,3.82-66.73,30.71-2.14,5.79-3.27,11.98-3.24,18.16.04,2.54.25,5.07.63,7.59l358.57-.15c-3.27-18.98-19.71-32.78-38.94-32.84h0Z"/>
      <path class="cls-1" d="M6766,94.65c-8.08,0-16.09,2.03-23.16,5.92-13.76-43.99-60.63-68.51-104.62-54.74-2.15.7-4.23,1.46-6.38,2.29-25.75-45.54-83.58-61.6-129.12-35.78-20.75,11.73-36.24,30.86-43.51,53.53-32.95-12.18-69.61,4.69-81.79,37.64-2.62,7.1-4,14.69-3.97,22.26.05,3.11.3,6.21.77,9.3l439.51-.18c-4.01-23.27-24.16-40.18-47.73-40.25h0Z"/>
    </g>
    <g id="Layer_1-2-3" data-name="Layer 1-2">
      <path class="cls-1" d="M7395.09,785.93c-6.59,0-13.13,1.66-18.89,4.83-11.23-35.89-49.46-55.89-85.36-44.66-1.76.57-3.45,1.19-5.2,1.87-21.01-37.15-68.19-50.26-105.34-29.19-16.93,9.57-29.57,25.18-35.5,43.67-26.88-9.94-56.79,3.82-66.73,30.71-2.14,5.79-3.27,11.98-3.24,18.16.04,2.54.25,5.07.63,7.59l358.57-.15c-3.27-18.98-19.71-32.78-38.94-32.84h0Z"/>
      <path class="cls-1" d="M7508.59,614.56c-3.49,0-6.96.88-10.01,2.56-5.95-19.02-26.22-29.62-45.24-23.67-.93.3-1.83.63-2.76.99-11.14-19.69-36.14-26.64-55.83-15.47-8.97,5.07-15.67,13.34-18.82,23.15-14.25-5.27-30.1,2.03-35.37,16.28-1.13,3.07-1.73,6.35-1.72,9.63.02,1.35.13,2.69.33,4.02l190.06-.08c-1.74-10.06-10.45-17.38-20.64-17.41h0Z"/>
      <path class="cls-1" d="M7196.01,339.72c-6.59,0-13.13,1.66-18.89,4.83-11.23-35.89-49.46-55.89-85.36-44.66-1.76.57-3.45,1.19-5.2,1.87-21.01-37.15-68.19-50.26-105.34-29.19-16.93,9.57-29.57,25.18-35.5,43.67-26.88-9.94-56.79,3.82-66.73,30.71-2.14,5.79-3.26,11.98-3.24,18.16.04,2.54.25,5.07.63,7.59l358.57-.15c-3.27-18.98-19.71-32.78-38.94-32.84h0Z"/>
      <path class="cls-1" d="M7511.24,94.66c-8.08,0-16.09,2.03-23.16,5.92-13.76-43.99-60.63-68.51-104.62-54.74-2.15.7-4.23,1.46-6.38,2.29-25.75-45.53-83.58-61.59-129.11-35.77-20.75,11.73-36.24,30.86-43.51,53.53-32.95-12.18-69.61,4.69-81.79,37.64-2.62,7.1-4,14.69-3.97,22.26.05,3.11.3,6.21.77,9.3l439.51-.18c-4.01-23.27-24.16-40.18-47.73-40.25h-.01Z"/>
      <path class="cls-1" d="M8304.6,785.93c-6.59,0-13.13,1.66-18.89,4.83-11.23-35.89-49.46-55.89-85.36-44.66-1.76.57-3.45,1.19-5.2,1.87-21.01-37.15-68.19-50.26-105.34-29.19-16.93,9.57-29.57,25.18-35.5,43.67-26.88-9.94-56.79,3.82-66.73,30.71-2.14,5.79-3.27,11.98-3.24,18.16.04,2.54.25,5.07.63,7.59l358.57-.15c-3.27-18.98-19.71-32.78-38.94-32.84h0Z"/>
      <path class="cls-1" d="M8418.1,614.56c-3.49,0-6.96.88-10.01,2.56-5.95-19.02-26.22-29.62-45.24-23.67-.93.3-1.83.63-2.76.99-11.14-19.69-36.14-26.64-55.83-15.47-8.97,5.07-15.67,13.34-18.82,23.15-14.25-5.27-30.1,2.03-35.37,16.28-1.13,3.07-1.73,6.35-1.72,9.63.02,1.35.13,2.69.33,4.02l190.06-.08c-1.74-10.06-10.45-17.38-20.64-17.41h0Z"/>
      <path class="cls-1" d="M8105.52,339.72c-6.59,0-13.13,1.66-18.89,4.83-11.23-35.89-49.46-55.89-85.36-44.66-1.76.57-3.45,1.19-5.2,1.87-21.01-37.15-68.19-50.26-105.34-29.19-16.93,9.57-29.57,25.18-35.5,43.67-26.88-9.94-56.79,3.82-66.73,30.71-2.14,5.79-3.27,11.98-3.24,18.16.04,2.54.25,5.07.63,7.59l358.57-.15c-3.27-18.98-19.71-32.78-38.94-32.84h0Z"/>
      <path class="cls-1" d="M8420.76,94.66c-8.08,0-16.09,2.03-23.16,5.92-13.76-43.99-60.63-68.51-104.62-54.74-2.15.7-4.23,1.46-6.38,2.29-25.75-45.54-83.58-61.6-129.12-35.78-20.75,11.73-36.24,30.86-43.51,53.53-32.95-12.18-69.61,4.69-81.79,37.64-2.62,7.1-4,14.69-3.97,22.26.05,3.11.3,6.21.77,9.3l439.51-.18c-4.01-23.27-24.16-40.18-47.73-40.25h0Z"/>
      <path class="cls-1" d="M9214.11,785.93c-6.59,0-13.13,1.66-18.89,4.83-11.23-35.89-49.46-55.89-85.36-44.66-1.76.57-3.45,1.19-5.2,1.87-21.01-37.15-68.19-50.26-105.34-29.19-16.93,9.57-29.57,25.18-35.5,43.67-26.88-9.94-56.79,3.82-66.73,30.71-2.14,5.79-3.27,11.98-3.24,18.16.04,2.54.25,5.07.63,7.59l358.57-.15c-3.27-18.98-19.71-32.78-38.94-32.84h0Z"/>
      <path class="cls-1" d="M9327.61,614.56c-3.49,0-6.96.88-10.01,2.56-5.95-19.02-26.22-29.62-45.24-23.67-.93.3-1.83.63-2.76.99-11.14-19.69-36.14-26.64-55.83-15.47-8.97,5.07-15.67,13.34-18.82,23.15-14.25-5.27-30.1,2.03-35.37,16.28-1.13,3.07-1.73,6.35-1.72,9.63.02,1.35.13,2.69.33,4.02l190.06-.08c-1.74-10.06-10.45-17.38-20.64-17.41h0Z"/>
      <path class="cls-1" d="M9015.03,339.72c-6.59,0-13.13,1.66-18.89,4.83-11.23-35.89-49.46-55.89-85.36-44.66-1.76.57-3.45,1.19-5.2,1.87-21.01-37.15-68.19-50.26-105.34-29.19-16.93,9.57-29.57,25.18-35.5,43.67-26.88-9.94-56.79,3.82-66.73,30.71-2.14,5.79-3.27,11.98-3.24,18.16.04,2.54.25,5.07.63,7.59l358.57-.15c-3.27-18.98-19.71-32.78-38.94-32.84h0Z"/>
      <path class="cls-1" d="M9330.27,94.66c-8.08,0-16.09,2.03-23.16,5.92-13.76-43.99-60.63-68.51-104.62-54.74-2.15.7-4.23,1.46-6.38,2.29-25.75-45.54-83.58-61.6-129.12-35.78-20.75,11.73-36.24,30.86-43.51,53.53-32.95-12.18-69.61,4.69-81.79,37.64-2.62,7.1-4,14.69-3.97,22.26.05,3.11.3,6.21.77,9.3l439.51-.18c-4.01-23.27-24.16-40.18-47.73-40.25h0Z"/>
      <path class="cls-1" d="M10123.62,785.93c-6.59,0-13.13,1.66-18.89,4.83-11.23-35.89-49.46-55.89-85.36-44.66-1.76.57-3.45,1.19-5.2,1.87-21.01-37.15-68.19-50.26-105.34-29.19-16.93,9.57-29.57,25.18-35.5,43.67-26.88-9.94-56.79,3.82-66.73,30.71-2.14,5.79-3.27,11.98-3.24,18.16.04,2.54.25,5.07.63,7.59l358.57-.15c-3.27-18.98-19.71-32.78-38.94-32.84h0Z"/>
      <path class="cls-1" d="M9924.54,339.72c-6.59,0-13.13,1.66-18.89,4.83-11.23-35.89-49.46-55.89-85.36-44.66-1.76.57-3.45,1.19-5.2,1.87-21.01-37.15-68.19-50.26-105.34-29.19-16.93,9.57-29.57,25.18-35.5,43.67-26.88-9.94-56.79,3.82-66.73,30.71-2.14,5.79-3.27,11.98-3.24,18.16.04,2.54.25,5.07.63,7.59l358.57-.15c-3.27-18.98-19.71-32.78-38.94-32.84h0Z"/>
      <path class="cls-1" d="M10239.78,94.66c-8.08,0-16.09,2.03-23.16,5.92-13.76-43.99-60.63-68.51-104.62-54.74-2.15.7-4.23,1.46-6.38,2.29-25.75-45.54-83.58-61.6-129.12-35.78-20.75,11.73-36.24,30.86-43.51,53.53-32.95-12.18-69.61,4.69-81.79,37.64-2.62,7.1-4,14.69-3.97,22.26.05,3.11.3,6.21.77,9.3l439.51-.18c-4.01-23.27-24.16-40.18-47.73-40.25h0Z"/>
    </g>
  </g>
</svg>